<?xml version="1.0" standalone="no"?>
<!DOCTYPE svg PUBLIC "-//W3C//DTD SVG 20010904//EN"
 "http://www.w3.org/TR/2001/REC-SVG-20010904/DTD/svg10.dtd">
<svg version="1.0" xmlns="http://www.w3.org/2000/svg"
 width="5000.000000pt" height="4000.000000pt" viewBox="0 0 5000.000000 4000.000000"
 preserveAspectRatio="xMidYMid meet">
<metadata>
Created by potrace 1.16, written by Peter Selinger 2001-2019
</metadata>
<g transform="translate(0.000000,4000.000000) scale(0.100000,-0.100000)"
fill="#000000" stroke="none">
<path d="M23545 29990 c-3 -5 -24 -14 -46 -20 -22 -6 -37 -15 -33 -21 3 -6 0
-9 -7 -7 -18 4 -79 -22 -79 -33 0 -5 -7 -9 -15 -9 -23 0 -226 -105 -219 -113
10 -10 26 -9 20 1 -2 4 3 8 13 8 10 0 18 -5 18 -11 0 -10 -36 -13 -62 -4 -16
5 -106 -44 -102 -56 5 -15 46 -18 63 -5 7 7 14 21 14 31 0 10 4 20 9 23 13 8
0 -47 -15 -61 -7 -7 -24 -13 -38 -13 -14 0 -26 -4 -26 -10 0 -5 -5 -10 -11
-10 -5 0 -7 5 -4 10 9 14 -8 12 -25 -2 -12 -11 -12 -10 -2 3 19 26 0 32 -21 7
-10 -13 -15 -16 -11 -8 5 9 -7 6 -32 -10 -21 -13 -63 -37 -92 -53 -30 -16 -49
-33 -46 -39 4 -6 2 -8 -4 -4 -14 9 -84 -33 -75 -47 4 -6 1 -7 -6 -2 -8 4 -25
-1 -42 -14 -15 -11 -33 -21 -38 -21 -5 0 -24 -15 -42 -32 -18 -18 -29 -26 -24
-18 5 8 -7 3 -26 -13 -18 -15 -44 -32 -57 -37 -13 -6 -20 -14 -17 -20 3 -5 0
-7 -8 -5 -7 3 -22 -3 -32 -15 -10 -11 -23 -20 -30 -20 -7 0 -24 -11 -39 -25
-14 -13 -26 -22 -26 -19 0 2 -25 -14 -55 -37 -30 -23 -52 -46 -48 -52 3 -6 1
-7 -5 -3 -15 9 -73 -34 -65 -47 3 -6 1 -7 -5 -3 -25 15 -531 -398 -768 -626
-44 -43 -88 -84 -99 -91 -10 -8 -15 -19 -11 -25 4 -7 2 -10 -7 -7 -14 6 -363
-351 -455 -465 -11 -14 -23 -23 -26 -20 -3 3 6 48 20 100 13 52 67 309 119
570 52 261 109 530 126 598 17 68 29 125 27 127 -2 3 -30 -12 -62 -32 -43 -27
-54 -38 -44 -45 9 -7 7 -8 -8 -3 -26 7 -97 -32 -87 -48 3 -6 1 -7 -6 -3 -16
10 -266 -157 -516 -345 -517 -388 -1082 -947 -1552 -1535 -512 -641 -1032
-1487 -1365 -2219 -20 -44 -48 -106 -62 -138 -416 -912 -718 -1969 -835 -2917
-85 -684 -33 -1419 150 -2155 148 -593 289 -941 794 -1970 358 -728 503 -1079
629 -1523 94 -330 138 -584 155 -889 16 -281 -12 -597 -74 -832 -14 -52 -23
-96 -20 -99 3 -3 5 0 5 5 0 6 47 126 104 266 218 534 261 729 260 1202 0 298
-16 456 -73 735 -125 608 -302 1181 -677 2188 -204 547 -295 871 -346 1232
-20 147 -17 777 5 995 48 464 127 872 251 1305 248 866 644 1678 1175 2409 79
108 323 410 442 546 109 124 430 452 551 563 498 457 1148 914 1798 1264 97
52 420 214 495 248 28 12 87 40 133 61 45 22 85 39 87 39 3 0 27 10 53 21 125
57 348 147 456 186 39 14 85 31 101 38 17 7 80 30 142 51 97 33 110 40 100 54
-11 13 -10 13 6 1 15 -12 29 -9 107 18 49 17 96 31 105 31 10 0 13 5 9 12 -4
7 -3 8 4 4 16 -10 63 4 55 17 -3 6 -1 7 5 3 12 -7 72 6 121 26 14 6 35 13 46
15 11 2 48 12 82 23 34 11 69 20 78 20 9 0 13 4 10 10 -3 5 0 8 7 5 18 -7 220
49 211 58 -4 5 -1 5 8 2 8 -3 59 6 114 21 55 14 106 26 112 27 10 0 10 3 0 15
-10 13 -9 14 10 4 23 -13 86 -5 77 9 -3 5 1 6 9 3 8 -3 43 2 78 11 35 8 75 17
89 20 14 2 48 9 75 15 28 5 61 12 75 14 14 3 48 10 75 16 28 7 61 14 75 16 14
2 48 8 75 14 28 7 66 14 85 16 19 3 42 8 50 11 16 7 71 14 109 14 18 1 21 3
10 10 -12 7 -12 9 0 9 8 0 11 3 8 7 -4 3 -36 7 -72 9 -58 2 -65 1 -65 -17 0
-10 -6 -19 -14 -19 -8 0 -13 8 -12 17 1 18 -13 20 -136 22 -37 1 -38 2 -38 41
l0 40 -40 0 -40 0 0 40 0 40 -80 0 -80 0 0 40 0 40 -40 0 -40 0 0 40 0 40 -40
0 -40 0 0 40 0 40 -40 0 -40 0 0 40 0 40 -80 0 -80 0 0 40 0 40 -40 0 -40 0 0
40 0 40 -40 0 -40 0 0 40 0 40 -40 0 -40 0 0 40 0 40 -80 0 -80 0 0 40 0 40
-40 0 -40 0 0 40 0 40 -40 0 -40 0 0 40 0 40 -40 0 -40 0 0 40 0 40 -80 0 -80
0 0 40 0 40 -40 0 c-39 0 -40 1 -40 36 0 19 -6 42 -14 50 -17 16 -52 19 -61 4
-3 -5 -12 -10 -18 -9 -9 0 -9 2 1 6 6 2 12 13 12 24 0 12 9 21 25 25 14 3 25
12 25 19 0 26 25 35 53 20 28 -14 57 -11 57 7 0 6 -6 6 -14 -1 -10 -9 -16 -9
-21 -1 -4 7 2 14 14 17 27 7 27 23 1 23 -11 0 -23 -7 -27 -16 -3 -8 -12 -13
-20 -10 -8 3 -26 0 -41 -8 -15 -7 -38 -16 -52 -20 -33 -9 41 29 86 44 19 6 34
16 34 20 0 5 7 6 17 3 11 -4 14 -3 9 6 -6 9 -1 10 18 5 16 -4 26 -2 26 5 0 13
42 10 53 -4 5 -6 7 -3 3 8 -4 12 0 17 15 17 11 0 17 -4 14 -10 -3 -5 1 -10 11
-10 26 0 -3 30 -30 31 -20 0 -20 1 3 12 19 9 25 9 29 -1 4 -14 22 -16 22 -2 0
14 -38 32 -45 20z"/>
<path d="M25179 28183 c-49 -11 -70 -21 -77 -37 -9 -17 -11 -18 -11 -3 -1 18
-16 23 -25 9 -3 -5 -18 -9 -33 -10 -15 -1 -53 -8 -83 -17 -79 -22 -83 -23
-100 -24 -11 -1 -12 -3 -3 -9 8 -5 -3 -8 -25 -8 -20 0 -71 -10 -112 -22 -41
-11 -112 -31 -158 -44 -47 -13 -80 -27 -75 -32 4 -5 3 -6 -4 -2 -17 10 -104
-14 -96 -27 3 -6 1 -7 -5 -3 -14 8 -132 -24 -132 -36 0 -5 -4 -7 -9 -3 -5 3
-21 0 -36 -7 -18 -8 -22 -14 -13 -20 9 -5 10 -8 1 -8 -6 0 -14 4 -18 9 -6 10
-97 -18 -103 -31 -2 -4 -10 -4 -19 -1 -11 4 -14 2 -9 -5 4 -7 2 -10 -6 -7 -8
3 -57 -10 -108 -29 -197 -71 -375 -138 -385 -144 -10 -7 -16 -8 -36 -11 -5 0
-7 -5 -4 -11 3 -5 0 -7 -8 -4 -12 4 -96 -29 -342 -136 -22 -9 -55 -23 -72 -30
-18 -7 -30 -17 -26 -23 3 -5 1 -7 -4 -4 -29 18 -622 -285 -1003 -513 -230
-137 -569 -364 -774 -518 -208 -156 -272 -207 -541 -437 -164 -141 -543 -515
-671 -664 -434 -505 -676 -829 -999 -1336 -209 -328 -478 -831 -629 -1175
-308 -702 -487 -1327 -549 -1917 -7 -68 -12 -123 -10 -123 1 0 21 37 45 83 61
117 222 354 324 477 105 126 390 412 529 531 602 516 1471 1037 2260 1354 194
78 446 158 560 177 11 2 -36 22 -105 45 -69 23 -248 84 -398 135 l-273 94 29
22 c443 340 929 653 1337 862 616 314 1275 525 1930 615 99 14 198 29 219 33
39 7 34 10 -303 175 -189 93 -339 172 -335 177 5 4 56 21 114 38 449 131 922
208 1565 254 286 20 1164 17 1510 -7 154 -10 310 -19 346 -19 37 -1 65 -4 62
-8 -2 -5 17 -8 42 -8 25 0 110 -7 187 -16 78 -8 152 -13 165 -9 13 3 23 1 23
-4 0 -16 123 -20 142 -4 11 10 18 11 23 4 3 -6 -2 -11 -12 -12 -31 -1 27 -15
97 -23 l65 -7 -88 65 c-55 40 -95 63 -105 59 -11 -3 -13 -2 -5 4 8 6 -1 19
-29 42 -42 36 -80 46 -110 30 -11 -6 -18 -6 -18 0 0 5 8 11 18 14 14 3 13 6
-8 15 -14 5 -33 20 -43 32 -10 11 -22 18 -28 15 -9 -6 -89 67 -89 80 0 3 18
-8 40 -26 22 -18 37 -36 33 -42 -4 -6 0 -8 11 -4 10 4 24 -1 34 -11 21 -21 92
-66 92 -59 0 7 -178 140 -207 155 -25 14 -45 16 -25 3 11 -7 10 -9 -3 -14 -9
-4 -13 -3 -10 3 8 13 -8 13 -22 -1 -8 -8 -10 -1 -8 23 3 37 -9 51 -91 111 -54
39 -70 46 -58 25 4 -8 3 -10 -2 -5 -5 5 -9 12 -9 16 0 12 -65 64 -72 57 -3 -3
5 -15 18 -27 l24 -21 -25 15 c-14 8 -25 21 -25 28 -1 19 -14 39 -26 39 -6 0
-7 -4 -4 -10 3 -6 -1 -7 -10 -3 -11 4 -13 8 -5 13 7 4 -2 17 -25 34 -19 15
-40 24 -47 20 -6 -4 -8 -3 -5 3 4 6 -5 20 -18 33 -13 13 -22 27 -18 33 3 5 8
5 12 -2 6 -8 18 -7 46 5 30 12 35 18 24 25 -10 7 -6 8 12 4 35 -9 66 20 47 43
-11 13 -10 15 5 9 10 -4 24 -7 30 -7 7 0 4 -5 -5 -11 -32 -18 -19 -27 17 -11
30 14 33 18 18 24 -15 6 -15 7 5 7 12 1 22 -3 22 -9 0 -5 7 -7 15 -4 8 4 15
10 15 15 0 5 -7 9 -15 9 -8 0 -15 5 -15 11 0 5 4 8 10 4 5 -3 19 4 30 15 11
11 18 25 15 30 -9 15 -25 12 -25 -5 0 -8 -7 -15 -16 -15 -14 0 -14 3 -4 15 11
13 6 15 -39 15 l-51 0 0 40 0 40 -80 0 -80 0 0 40 0 40 -40 0 -40 0 0 40 0 40
-40 0 -40 0 0 40 0 40 -40 0 -40 0 0 40 0 40 -80 0 -80 0 0 40 0 40 -40 0 -40
0 0 40 0 40 -40 0 -40 0 0 40 0 40 -40 0 -40 0 0 40 0 40 -80 0 -80 0 0 40 0
40 -40 0 -40 0 0 40 0 40 -40 0 -40 0 0 40 0 40 -40 0 -40 0 0 40 0 40 -80 0
-80 0 0 40 0 40 -40 0 -40 0 0 40 0 40 -40 0 -40 0 0 40 0 40 -40 0 -40 0 0
40 0 40 -80 0 -80 0 0 40 0 40 -41 0 -40 0 3 38 c2 24 8 36 16 34 8 -1 11 2 7
7 -3 6 9 15 27 20 l33 11 -35 -4 c-19 -2 -44 -6 -55 -9 -11 -2 -14 -2 -7 0 25
9 11 24 -18 19 -83 -16 -95 -17 -80 -7 19 13 11 13 -71 -6z"/>
<path d="M22015 14250 c10 -12 25 -18 32 -15 8 2 12 1 9 -4 -3 -5 31 -35 75
-67 44 -33 92 -69 107 -82 15 -12 33 -20 40 -17 7 3 11 1 8 -4 -7 -11 173
-146 197 -147 10 -1 21 -5 25 -9 4 -5 -2 -5 -13 -2 -14 5 -11 0 10 -18 17 -14
36 -23 43 -20 7 3 11 1 8 -3 -3 -5 4 -16 15 -26 17 -14 24 -15 37 -5 14 11 15
11 5 -1 -9 -10 -10 -17 -2 -27 17 -20 34 -16 18 5 -13 15 -12 16 3 3 10 -7 16
-17 13 -21 -2 -4 9 -17 25 -28 32 -24 45 -28 34 -10 -4 7 -3 8 5 4 6 -4 9 -11
6 -16 -3 -5 3 -14 14 -19 11 -6 25 -17 33 -24 19 -19 167 -127 173 -127 4 0 3
6 -1 13 -6 9 -4 9 8 -1 16 -13 13 -56 -3 -46 -5 3 -9 0 -9 -6 0 -6 -4 -8 -10
-5 -5 3 -24 -1 -42 -9 -30 -14 -85 -34 -148 -55 -14 -5 -38 -15 -55 -21 -16
-7 -37 -14 -45 -16 -8 -2 -23 -7 -35 -12 -24 -11 -171 -60 -200 -67 -11 -3
-31 -9 -45 -14 -14 -5 -59 -19 -100 -31 -41 -12 -92 -28 -113 -36 -20 -8 -46
-14 -57 -14 -11 0 -20 -4 -20 -9 0 -5 -10 -7 -22 -3 -14 3 -19 2 -14 -6 4 -7
1 -12 -6 -13 -50 -3 -83 -9 -153 -28 -74 -21 -297 -75 -355 -87 -14 -3 -34 -8
-45 -11 -11 -4 -27 -7 -35 -8 -8 -1 -42 -8 -75 -14 -33 -7 -71 -14 -85 -17
-658 -132 -1261 -189 -1995 -188 -435 0 -589 6 -960 40 -892 80 -1828 288
-2627 585 -89 33 -170 61 -178 62 -8 1 -17 4 -20 7 -3 3 -54 25 -115 49 -60
24 -128 52 -151 62 -22 10 -63 27 -91 38 -28 11 -68 29 -89 41 -21 11 -42 20
-46 20 -5 0 -45 18 -89 40 -88 43 -89 44 -89 32 0 -8 95 -135 158 -211 20 -25
51 -61 67 -82 78 -96 230 -265 335 -372 153 -157 389 -390 420 -415 14 -11 52
-46 85 -77 86 -81 461 -397 583 -491 324 -249 477 -360 691 -504 118 -79 323
-212 363 -235 10 -5 57 -35 105 -65 84 -53 115 -71 228 -135 28 -15 95 -54
150 -85 55 -32 172 -96 260 -142 144 -76 206 -107 452 -225 40 -19 78 -31 84
-27 7 4 9 3 6 -3 -7 -11 16 -22 233 -114 1047 -442 2029 -660 2997 -663 150
-1 273 -3 273 -5 0 -2 -21 -27 -47 -56 -27 -28 -84 -92 -128 -140 -167 -186
-192 -214 -280 -309 -49 -54 -90 -104 -90 -110 0 -18 209 -28 505 -22 352 6
642 36 944 97 55 11 131 27 169 34 158 32 529 137 553 156 6 5 13 7 16 4 4 -5
67 16 268 91 19 7 49 18 65 25 17 7 35 13 41 14 27 6 206 89 218 101 8 7 16
11 19 8 9 -9 106 39 100 50 -3 5 -1 6 5 2 6 -4 71 24 144 62 215 111 269 143
261 154 -3 7 -1 8 5 4 15 -9 123 55 115 68 -3 5 -1 6 6 2 15 -10 123 62 115
76 -4 7 -2 8 4 4 16 -10 54 12 46 26 -4 7 -3 8 4 4 15 -9 94 43 85 57 -3 5 -1
7 4 4 6 -4 24 3 39 15 37 27 54 44 35 33 -9 -5 -12 -4 -7 3 4 6 12 9 19 6 7
-2 23 6 37 18 39 35 117 88 129 88 8 0 9 -6 2 -17 -5 -10 -11 -31 -14 -48 -3
-16 -10 -45 -16 -63 -5 -18 -10 -36 -11 -40 0 -4 -3 -16 -6 -28 -3 -11 -6 -27
-8 -35 -1 -8 -8 -33 -15 -56 -6 -23 -13 -59 -16 -80 -2 -21 -16 -85 -30 -142
-14 -58 -23 -111 -21 -118 4 -9 1 -11 -5 -7 -8 5 -10 -5 -7 -29 2 -20 2 -34
-1 -31 -3 2 -17 -37 -31 -88 -15 -51 -24 -94 -20 -96 4 -1 41 6 81 18 41 11
85 23 98 26 13 3 31 9 40 13 9 5 33 11 54 15 20 4 37 11 37 15 0 5 10 9 23 9
27 0 205 60 226 76 7 6 19 11 25 11 21 1 91 25 106 36 13 9 12 10 -3 5 -11 -3
-16 -2 -12 5 4 5 15 7 24 4 16 -5 75 17 176 66 22 11 32 18 22 15 -11 -4 -16
-2 -11 5 3 6 15 8 26 6 28 -8 176 64 171 83 -4 12 -2 12 5 2 7 -10 31 -2 111
38 55 28 99 55 96 60 -3 4 3 6 13 3 11 -2 29 7 47 24 16 15 25 22 21 16 -5 -9
-2 -11 8 -7 9 3 16 14 16 24 0 11 12 22 30 29 36 12 41 5 5 -9 -14 -5 -25 -14
-25 -19 0 -10 51 12 85 37 20 14 20 14 -2 9 -15 -3 -20 -1 -16 9 3 9 14 11 33
7 22 -4 42 3 87 32 32 21 50 35 40 31 -11 -3 -16 -2 -12 5 4 6 14 8 22 5 20
-8 55 12 47 26 -4 6 -3 8 3 5 11 -7 111 51 151 88 15 14 32 23 39 21 22 -9 24
13 3 24 -16 9 -25 8 -36 -1 -10 -8 -18 -9 -25 -2 -8 8 -2 13 20 18 20 4 31 13
31 23 0 15 -2 15 -10 2 -9 -13 -11 -13 -20 0 -8 13 -10 12 -10 -2 0 -17 -35
-25 -92 -20 -10 1 -18 -3 -18 -9 0 -5 4 -8 9 -5 5 4 15 -7 23 -24 14 -33 42
-39 56 -14 5 9 17 14 28 12 16 -4 15 -6 -8 -16 -16 -6 -28 -16 -28 -21 0 -6
-6 -8 -13 -5 -8 3 -20 -2 -27 -11 -7 -8 -19 -15 -27 -15 -8 0 -11 -4 -8 -10 9
-14 -7 -12 -28 5 -25 18 -19 61 7 57 15 -3 16 -1 5 11 -10 11 -16 12 -21 3 -5
-6 -8 -2 -8 12 0 19 -5 22 -40 22 l-40 0 0 40 0 40 -40 0 -40 0 0 40 0 40 -40
0 -40 0 0 40 0 40 -40 0 -40 0 0 40 0 40 -40 0 -40 0 0 40 0 40 -40 0 -40 0 0
40 0 40 -40 0 -40 0 0 40 0 40 -40 0 -40 0 0 40 0 40 -40 0 -40 0 0 80 0 80
-40 0 -40 0 0 40 0 40 -40 0 -40 0 0 40 0 40 -40 0 -40 0 0 40 0 40 -40 0 -40
0 0 40 0 40 -41 0 c-41 0 -41 0 -35 33 7 38 -6 62 -29 54 -9 -4 -14 -3 -10 3
3 6 -1 10 -9 10 -9 0 -16 5 -16 10 0 6 -7 10 -16 10 -8 0 -13 4 -10 9 4 5 -10
4 -29 -2 -19 -6 -35 -14 -35 -19 0 -5 -10 -8 -22 -7 -42 4 -58 -1 -58 -17 0
-8 5 -12 10 -9 6 3 10 1 10 -4 0 -14 -46 -14 -71 0 -15 7 -24 7 -34 -1 -8 -7
-18 -10 -22 -7 -5 3 -30 0 -57 -7 -35 -9 -44 -15 -32 -19 10 -4 23 -4 28 0 6
3 8 1 5 -4 -4 -6 -16 -13 -27 -16 -11 -3 -18 -1 -15 3 17 28 -99 14 -117 -14
-6 -8 -8 -8 -8 0 0 8 -16 8 -57 -1 -63 -14 -117 -33 -94 -34 8 -1 11 -4 8 -7
-4 -4 -13 -1 -21 5 -9 8 -28 10 -51 5 -27 -5 -33 -9 -23 -16 8 -6 0 -7 -24 -3
-25 4 -38 2 -38 -5 0 -7 -8 -9 -19 -5 -11 3 -35 -1 -54 -9 -20 -8 -38 -12 -40
-9 -5 4 -38 -1 -162 -27 -54 -12 -84 -16 -158 -25 -27 -3 -60 -10 -74 -16 -14
-5 -55 -12 -92 -14 -90 -7 -137 -19 -133 -34 1 -7 -2 -10 -8 -6 -6 3 -7 11 -4
17 5 8 1 9 -10 5 -10 -4 -48 -10 -84 -13 -37 -4 -69 -10 -72 -13 -3 -4 -25 -7
-50 -8 -25 0 -128 -11 -230 -23 -102 -12 -210 -24 -240 -26 -30 -2 -104 -9
-165 -14 -236 -22 -582 -40 -848 -47 -153 -3 -279 -9 -281 -12 -13 -21 -1470
34 -1546 58 -26 8 58 12 730 32 201 5 430 15 510 20 80 5 152 10 160 10 92 1
575 41 785 64 300 34 802 105 890 126 22 5 60 12 85 15 25 3 63 10 84 15 22 6
60 13 85 15 25 3 47 9 49 14 2 5 10 6 18 3 8 -3 22 -2 32 2 9 4 28 9 42 10 52
7 96 16 164 34 39 10 107 25 151 33 71 11 76 14 45 19 l-35 6 32 2 c17 0 40 4
50 7 15 5 16 4 3 -6 -12 -10 -10 -11 10 -5 14 3 36 8 50 11 14 3 34 8 45 11
11 4 22 7 25 8 3 0 19 5 35 9 l30 9 -25 7 -25 8 27 1 c15 1 29 -3 33 -8 6 -11
141 24 162 41 7 5 16 7 22 4 5 -4 21 -1 36 6 18 8 22 14 13 20 -8 5 -2 8 17 8
24 0 27 -2 15 -11 -12 -9 -12 -10 3 -5 10 3 25 6 32 6 7 0 15 7 17 16 2 12 18
16 66 18 38 1 67 8 71 15 5 7 14 12 22 10 27 -4 79 14 79 27 0 7 8 15 18 18 9
3 0 3 -21 0 -21 -3 -46 -8 -55 -11 -13 -4 -14 -3 -3 5 9 7 10 11 2 13 -7 3 12
4 41 4 37 0 52 -4 51 -12 -4 -16 -1 -16 69 3 32 9 58 21 58 26 0 6 7 7 16 4
10 -4 14 -1 12 6 -3 7 -14 14 -26 16 -12 2 -22 12 -24 25 -2 12 -9 21 -16 20
-6 -2 -12 2 -12 7 0 15 -44 12 -66 -5 -10 -8 -23 -14 -29 -15 -5 0 -3 5 5 10
10 6 11 10 3 10 -9 0 -13 23 -13 80 l0 80 -40 0 -40 0 0 40 0 40 -40 0 -40 0
0 40 0 40 -40 0 -40 0 0 40 0 40 -40 0 -40 0 0 40 0 40 -40 0 -40 0 0 40 0 40
-40 0 -40 0 0 40 0 40 -40 0 -40 0 0 40 0 40 -40 0 -40 0 0 40 0 40 -40 0 -40
0 0 40 0 40 -40 0 -40 0 0 40 0 40 -40 0 -40 0 0 80 0 80 -40 0 -40 0 0 40 0
40 -40 0 -40 0 0 40 0 40 -40 0 -40 0 0 40 0 40 -40 0 -40 0 0 40 0 40 -40 0
-40 0 0 40 0 40 -40 0 -40 0 0 40 0 40 -40 0 -40 0 0 40 0 40 -40 0 -40 0 0
40 0 40 -40 0 -40 0 0 40 0 40 -40 0 -40 0 0 45 0 45 50 0 c33 0 50 -4 50 -12
0 -9 4 -8 10 2 9 13 10 13 10 0 0 -13 1 -13 10 0 9 13 10 13 10 0 0 -13 1 -13
10 0 9 13 10 13 10 0 0 -10 3 -11 8 -3 4 6 39 13 77 16 43 3 55 2 30 -2 -32
-6 -21 -8 56 -12 75 -3 95 -1 92 9 -3 6 0 12 6 12 6 0 11 -7 11 -15 0 -9 6
-12 15 -9 8 4 12 10 9 15 -3 5 -1 9 5 9 5 0 11 -4 13 -9 2 -5 36 -12 77 -16
50 -5 72 -4 67 3 -3 6 0 13 6 16 7 3 0 4 -17 1 -44 -8 -47 -8 -83 -7 -21 1
-31 6 -27 13 4 6 19 10 33 9 69 -5 102 0 102 15 0 17 0 17 -57 19 -50 3 -48
-4 4 -14 l38 -8 -42 -1 c-23 0 -44 3 -47 8 -7 11 -66 20 -66 10 0 -4 -12 -10
-27 -12 -18 -3 -14 -4 9 -3 21 1 34 -2 29 -7 -10 -10 -163 2 -157 12 2 3 -28
7 -66 8 -56 1 -69 -1 -64 -13 3 -9 -1 -14 -14 -14 -11 0 -20 7 -20 15 0 12
-15 15 -79 15 -44 0 -82 -4 -85 -9 -3 -5 -20 -7 -38 -5 -18 2 -69 6 -113 8
-65 3 -70 2 -25 -4 54 -7 54 -7 -25 -8 -56 -1 -76 1 -65 8 11 8 1 10 -35 9
-27 -1 -88 1 -134 4 -64 4 -90 2 -105 -9 -11 -8 -27 -14 -36 -13 -8 0 -4 5 9
10 13 5 22 11 20 13 -4 4 -198 17 -320 21 -42 1 -81 5 -85 7 -5 3 -65 9 -134
12 -69 4 -140 10 -159 13 -22 4 -32 2 -28 -4 4 -6 -12 -4 -36 4 -25 9 -59 13
-83 9 -22 -3 -45 -1 -50 4 -5 5 -48 12 -94 14 -47 2 -85 5 -85 7 0 1 -11 3
-25 4 -14 1 -65 8 -113 15 -49 6 -97 10 -108 7 -10 -3 -17 -1 -13 4 3 5 -5 9
-17 9 -22 0 -22 0 -4 -20z"/>
</g>
</svg>
